<svg xmlns="http://www.w3.org/2000/svg" version="1.1" id="svg2" width="99.98" height="101.4" viewBox="0 0 122.8 124.5" overflow="visible" xml:space="preserve" style="overflow:visible"><g id="layer1" transform="translate(0 -5.54)"><g id="g4612" transform="translate(-4.9 3.23) scale(1.223)"><path style="fill:#008635;fill-opacity:1" d="M35.71 44.17c1.23-15.65 7.82-30.82 12.12-41.88C27.27 4.93 10.6 20.2 5.57 40.2c3.38 1.19 14.54 4.59 30.14 3.98" id="path1412"/><path style="fill:#008635;fill-opacity:1" d="M47.43 43.59c25.57-3 43.86-19.56 48.76-24.46a49.67 49.67 0 0 0-41.54-17.1c-3.13 8.27-8.87 25.66-8.83 41.74l1.61-.18" id="path1414"/><path style="fill:#008635;fill-opacity:1" d="M41.77 49.76c.86 8.22 3.62 15.7 9.53 20.89 14.22 12.47 33.59 13.52 42.63 13.24A51 51 0 0 0 104.4 52.8c0-6.85-1.4-13.39-3.8-19.36C96.28 36 76.4 46.9 47.59 49.42c-2.02.17-3.95.28-5.82.34" id="path1416"/><path style="fill:#008635;fill-opacity:1" d="M44.26 77.19c-6.26-8.63-8.61-18.02-8.74-27.4C18.45 49.34 8.04 44.62 4.96 43a52.8 52.8 0 0 0-.95 9.81c0 28.13 22.48 50.89 50.19 50.89a48.7 48.7 0 0 0 20.43-4.37c-10.18-4.45-22.78-11.65-30.37-22.14" id="path1418"/></g></g></svg>
